<svg width="60" height="50" viewBox="0 0 60 50" fill="none" xmlns="http://www.w3.org/2000/svg">
<path d="M5.02273 3.27274V4.4091H0.5V3.27274H5.02273ZM1.81818 1.18183H3.15909V9.50001C3.15909 9.8788 3.21402 10.1629 3.32386 10.3523C3.4375 10.5379 3.58144 10.6629 3.75568 10.7273C3.93371 10.7879 4.12121 10.8182 4.31818 10.8182C4.46591 10.8182 4.58712 10.8106 4.68182 10.7955C4.77652 10.7765 4.85227 10.7614 4.90909 10.75L5.18182 11.9546C5.09091 11.9886 4.96402 12.0227 4.80114 12.0568C4.63826 12.0947 4.43182 12.1136 4.18182 12.1136C3.80303 12.1136 3.43182 12.0322 3.06818 11.8693C2.70833 11.7065 2.40909 11.4583 2.17045 11.125C1.93561 10.7917 1.81818 10.3712 1.81818 9.86365V1.18183Z" fill="white"/>
<path d="M8.56818 6.75001V12H7.22727V0.363647H8.56818V4.63637H8.68182C8.88636 4.18562 9.19318 3.82766 9.60227 3.56251C10.0152 3.29357 10.5644 3.1591 11.25 3.1591C11.8447 3.1591 12.3655 3.27842 12.8125 3.51706C13.2595 3.75191 13.6061 4.11365 13.8523 4.60228C14.1023 5.08713 14.2273 5.70456 14.2273 6.45456V12H12.8864V6.54547C12.8864 5.85228 12.7064 5.3163 12.3466 4.93751C11.9905 4.55494 11.4962 4.36365 10.8636 4.36365C10.4242 4.36365 10.0303 4.45645 9.68182 4.64206C9.33712 4.82766 9.06439 5.0985 8.86364 5.45456C8.66667 5.81062 8.56818 6.24244 8.56818 6.75001Z" fill="white"/>
<path d="M20.3395 12.1818C19.4986 12.1818 18.7732 11.9962 18.1634 11.625C17.5573 11.25 17.0895 10.7273 16.7599 10.0568C16.4342 9.38259 16.2713 8.5985 16.2713 7.70456C16.2713 6.81062 16.4342 6.02274 16.7599 5.34092C17.0895 4.65531 17.5478 4.12122 18.1349 3.73865C18.7259 3.35228 19.4152 3.1591 20.2031 3.1591C20.6577 3.1591 21.1065 3.23486 21.5497 3.38637C21.9929 3.53789 22.3963 3.7841 22.7599 4.12501C23.1236 4.46213 23.4134 4.9091 23.6293 5.46592C23.8452 6.02274 23.9531 6.70834 23.9531 7.52274V8.09092H17.2259V6.93183H22.5895C22.5895 6.4394 22.491 6.00001 22.294 5.61365C22.1009 5.22728 21.8243 4.92236 21.4645 4.69887C21.1084 4.47539 20.688 4.36365 20.2031 4.36365C19.669 4.36365 19.2069 4.49622 18.8168 4.76137C18.4304 5.02274 18.1331 5.36365 17.9247 5.7841C17.7164 6.20456 17.6122 6.65531 17.6122 7.13637V7.9091C17.6122 8.56819 17.7259 9.12691 17.9531 9.58524C18.1842 10.0398 18.5043 10.3864 18.9134 10.625C19.3224 10.8599 19.7978 10.9773 20.3395 10.9773C20.6918 10.9773 21.0099 10.928 21.294 10.8296C21.5819 10.7273 21.83 10.5758 22.0384 10.375C22.2467 10.1705 22.4077 9.91668 22.5213 9.61365L23.8168 9.97728C23.6804 10.4167 23.4512 10.803 23.1293 11.1364C22.8073 11.4659 22.4096 11.7235 21.9361 11.9091C21.4626 12.0909 20.9304 12.1818 20.3395 12.1818Z" fill="white"/>
<path d="M7.32386 22.7102C7.27841 22.2519 7.08333 21.8958 6.73864 21.6421C6.39394 21.3883 5.92614 21.2614 5.33523 21.2614C4.93371 21.2614 4.5947 21.3182 4.31818 21.4318C4.04167 21.5417 3.82955 21.6951 3.68182 21.8921C3.53788 22.089 3.46591 22.3125 3.46591 22.5625C3.45833 22.7708 3.50189 22.9527 3.59659 23.108C3.69508 23.2633 3.82955 23.3977 4 23.5114C4.17045 23.6212 4.36742 23.7178 4.59091 23.8011C4.81439 23.8807 5.05303 23.9489 5.30682 24.0057L6.35227 24.2557C6.85985 24.3693 7.32576 24.5208 7.75 24.7102C8.17424 24.8996 8.54167 25.1326 8.85227 25.4091C9.16288 25.6856 9.40341 26.0114 9.57386 26.3864C9.74811 26.7614 9.83712 27.1913 9.84091 27.6761C9.83712 28.3883 9.6553 29.0057 9.29545 29.5284C8.93939 30.0474 8.42424 30.4508 7.75 30.7386C7.07955 31.0227 6.27083 31.1648 5.32386 31.1648C4.38447 31.1648 3.56629 31.0208 2.86932 30.733C2.17614 30.4451 1.63447 30.019 1.24432 29.4546C0.857955 28.8864 0.655303 28.1837 0.636364 27.3466H3.01705C3.04356 27.7368 3.1553 28.0625 3.35227 28.3239C3.55303 28.5815 3.82008 28.7765 4.15341 28.9091C4.49053 29.0379 4.87121 29.1023 5.29545 29.1023C5.71212 29.1023 6.07386 29.0417 6.38068 28.9205C6.69129 28.7993 6.93182 28.6307 7.10227 28.4148C7.27273 28.1989 7.35795 27.9508 7.35795 27.6705C7.35795 27.4091 7.2803 27.1894 7.125 27.0114C6.97348 26.8333 6.75 26.6818 6.45455 26.5568C6.16288 26.4318 5.80492 26.3182 5.38068 26.2159L4.11364 25.8977C3.13258 25.6591 2.35795 25.286 1.78977 24.7784C1.22159 24.2708 0.939394 23.5871 0.943182 22.7273C0.939394 22.0227 1.12689 21.4072 1.50568 20.8807C1.88826 20.3542 2.41288 19.9432 3.07955 19.6477C3.74621 19.3523 4.50379 19.2046 5.35227 19.2046C6.21591 19.2046 6.9697 19.3523 7.61364 19.6477C8.26136 19.9432 8.76515 20.3542 9.125 20.8807C9.48485 21.4072 9.67045 22.0171 9.68182 22.7102H7.32386Z" fill="white"/>
<path d="M11.0526 21.3921V19.3636H20.6094V21.3921H17.0469V31H14.6151V21.3921H11.0526Z" fill="white"/>
<path d="M29.3707 19.3636H31.831V26.9205C31.831 27.7689 31.6283 28.5114 31.223 29.1477C30.8215 29.7841 30.259 30.2803 29.5355 30.6364C28.812 30.9886 27.9692 31.1648 27.0071 31.1648C26.0412 31.1648 25.1965 30.9886 24.473 30.6364C23.7495 30.2803 23.187 29.7841 22.7855 29.1477C22.384 28.5114 22.1832 27.7689 22.1832 26.9205V19.3636H24.6435V26.7102C24.6435 27.1534 24.7401 27.5474 24.9332 27.8921C25.1302 28.2368 25.4067 28.5076 25.7628 28.7046C26.1188 28.9015 26.5336 29 27.0071 29C27.4844 29 27.8991 28.9015 28.2514 28.7046C28.6075 28.5076 28.8821 28.2368 29.0753 27.8921C29.2723 27.5474 29.3707 27.1534 29.3707 26.7102V19.3636Z" fill="white"/>
<path d="M33.8551 31V19.3636H38.446C39.3286 19.3636 40.0805 19.5322 40.7017 19.8693C41.3229 20.2027 41.7964 20.6667 42.1222 21.2614C42.4517 21.8523 42.6165 22.5341 42.6165 23.3068C42.6165 24.0796 42.4498 24.7614 42.1165 25.3523C41.7831 25.9432 41.3002 26.4034 40.6676 26.733C40.0388 27.0625 39.2775 27.2273 38.3835 27.2273H35.4574V25.2557H37.9858C38.4593 25.2557 38.8494 25.1743 39.1562 25.0114C39.4669 24.8447 39.6979 24.6155 39.8494 24.3239C40.0047 24.0284 40.0824 23.6894 40.0824 23.3068C40.0824 22.9205 40.0047 22.5833 39.8494 22.2955C39.6979 22.0038 39.4669 21.7784 39.1562 21.6193C38.8456 21.4565 38.4517 21.375 37.9744 21.375H36.3153V31H33.8551Z" fill="white"/>
<path d="M46.6747 19.3636V31H44.2145V19.3636H46.6747Z" fill="white"/>
<path d="M52.8239 31H48.6989V19.3636H52.858C54.0284 19.3636 55.036 19.5966 55.8807 20.0625C56.7254 20.5246 57.375 21.1894 57.8295 22.0568C58.2879 22.9243 58.517 23.9621 58.517 25.1705C58.517 26.3826 58.2879 27.4243 57.8295 28.2955C57.375 29.1667 56.7216 29.8352 55.8693 30.3011C55.0208 30.7671 54.0057 31 52.8239 31ZM51.1591 28.8921H52.7216C53.4489 28.8921 54.0606 28.7633 54.5568 28.5057C55.0568 28.2443 55.4318 27.8409 55.6818 27.2955C55.9356 26.7462 56.0625 26.0379 56.0625 25.1705C56.0625 24.3106 55.9356 23.608 55.6818 23.0625C55.4318 22.5171 55.0587 22.1155 54.5625 21.858C54.0663 21.6004 53.4545 21.4716 52.7273 21.4716H51.1591V28.8921Z" fill="white"/>
<path d="M28.1364 50H24.0114V38.3636H28.1705C29.3409 38.3636 30.3485 38.5966 31.1932 39.0625C32.0379 39.5246 32.6875 40.1894 33.142 41.0568C33.6004 41.9243 33.8295 42.9621 33.8295 44.1705C33.8295 45.3826 33.6004 46.4243 33.142 47.2955C32.6875 48.1667 32.0341 48.8352 31.1818 49.3011C30.3333 49.7671 29.3182 50 28.1364 50ZM26.4716 47.8921H28.0341C28.7614 47.8921 29.3731 47.7633 29.8693 47.5057C30.3693 47.2443 30.7443 46.8409 30.9943 46.2955C31.2481 45.7462 31.375 45.0379 31.375 44.1705C31.375 43.3106 31.2481 42.608 30.9943 42.0625C30.7443 41.5171 30.3712 41.1155 29.875 40.858C29.3788 40.6004 28.767 40.4716 28.0398 40.4716H26.4716V47.8921Z" fill="white"/>
<path d="M38.1122 38.3636V50H35.652V38.3636H38.1122Z" fill="white"/>
<path d="M40.1364 50V38.3636H47.9773V40.3921H42.5966V43.1648H47.5739V45.1932H42.5966V47.9716H48V50H40.1364Z" fill="white"/>
<path d="M49.4901 40.3921V38.3636H59.0469V40.3921H55.4844V50H53.0526V40.3921H49.4901Z" fill="white"/>
</svg>
